<?xml version="1.0" encoding="utf-8"?>
<!-- Generator: Adobe Illustrator 25.3.1, SVG Export Plug-In . SVG Version: 6.00 Build 0)  -->
<svg version="1.1" id="Layer_1" xmlns="http://www.w3.org/2000/svg" xmlns:xlink="http://www.w3.org/1999/xlink" x="0px" y="0px"
	 viewBox="0 0 1080 1080" style="enable-background:new 0 0 1080 1080;" xml:space="preserve">
<style type="text/css">
	.st0{fill:#FFFFFF;}
</style>
<g>
	<path class="st0" d="M199.7,673.7c2.1,48.7,9.9,189.1,62.9,295.6c1.7,3.5,6.8,3.2,8-0.5C333.1,787.3,404.3,632.2,503.3,471
		c2.5-4,2-9.2-1.1-12.7c-15-16.4-41.5-37.9-60.8-48.8c-3.6-2-8.2-0.7-10.3,2.9c-49.5,88.9-97.8,180.2-133.5,264
		c-1.4,3.3-6.1,3.1-7.2-0.3C262.6,593.4,272.2,488,276.7,385c0.2-4.1-4.9-6.2-7.6-3.2c-34.2,37.5-114.6,137-155.6,282.6
		c-1,3.6-5.9,3.9-7.4,0.6c-28.7-63.4-12.2-166.6,14.8-230c1.2-2.7-2.1-5.2-4.4-3.4C-44,555.4-16.1,802.4,149.7,909.7
		c2.2,1.4,5-0.1,5.2-2.6c4.4-82.7,29.4-192.2,39.5-233.8C195.1,670.2,199.5,670.6,199.7,673.7z"/>
	<path class="st0" d="M580,511.5c-9.4-5.1-18.6-10-27.5-14.6c-5.2-2.7-11.6-1.3-14.4,3.9c-77,142.1-150.3,305.6-224,486.6
		c-1.8,4.4,0.5,9.4,5,10.8c24.1,7.9,48.7,14.1,73.5,18.7c3.9,0.7,7.7-1.5,9-5.2l22-62.2c1.8-5.2,7.3-8.1,12.7-6.8
		c20.5,5.1,55,10.3,76.6,10.5c4.2,0.1,7.8,3.3,8.2,7.5l5.9,57.6c0.4,4.3,4.1,7.4,8.4,7.1c19.6-1.3,39.2-3.6,58.6-6.9
		c4.4-0.7,7.5-4.7,7.2-9.1c-11.2-158.6-25.7-329.1-15-487.4C586.5,517.5,583.9,513.7,580,511.5z M467,842.9
		c9.1-30.5,28.8-87.5,51.5-135.9c0.9-1.8,3.8-1.2,3.7,0.9c-0.8,28.6-5.4,95.5-7.9,143.9c-0.1,2.3-1.5,4.4-3.8,4.4
		c-15.6,0.1-29.4-2.3-41-7.4C467.3,847.8,466.3,845.3,467,842.9z"/>
	<path class="st0" d="M754.5,532.8c-12.5,1.6-25,2.9-37.4,4.7c-2.9,0.4-5.1,2.7-4.9,5.6c6.8,82,35.3,222.7,45.6,256
		c0.6,1.8-0.5,3.5-1.9,4.8c-10.9,9-26,16.6-40.1,21.7c-2.1,0.8-4.4-1.1-5-3.3c-9.7-36.2-32-173.2-29.4-280.3c0.1-2.7-2-4.7-4.6-5.1
		c-13.7-2.1-22.3-4.3-35.7-6.3c-4-0.6-7.8,1.8-8.1,5.8c-14.4,197.9,10.9,349.8,29.4,459.5c0.7,4.1,4.7,6.7,8.7,5.4
		c24.2-7.4,43-16.5,66.2-27.2c2.8-1.3,4.2-4.5,3.4-7.4c-3.5-12-10.8-38.2-12.1-55c-0.2-2.9,1.7-5.2,4.4-6.5
		c19.8-9,35-16.6,48.9-26.1c2.3-1.5,5.4,0.2,6.2,2.8c3.9,12.5,13.9,39.6,17.9,48.3c1.2,2.6,4.5,3.6,6.9,2
		c22.7-15,44.6-31.8,65.4-50.3c2.3-2,2.7-5.3,1.1-7.9C815,774.2,770,607.5,760.4,536.8C759.8,534.2,757.2,532.5,754.5,532.8z"/>
	<path class="st0" d="M917.1,839.8l10.1-189.2c0-1.4,1.9-1.9,2.6-0.6l50.7,104.5c0.7,1.4,2.8,1.1,3.1-0.5
		c23.9-125.1,27.7-261.8-15.4-391.8c-0.5-1.6-2.8-1.7-3.5-0.1c-9.2,20.2-17.9,38.8-28.7,59.5c-1.4,2.4-2.2,5-1.7,7.6
		c11.6,59.7,19.7,123.2,17.4,165.8c-0.1,1.6-2.3,2.2-3.1,0.8l-47-84.7c-0.6-1-2.1-0.7-2.3,0.5l-17.5,111c-0.3,1.6-2.5,2-3.2,0.5
		c-11.4-24.6-27.4-75.7-32.7-118.1c-0.4-3.1-4-4.5-6.8-3c-13.7,7.1-22.9,11.2-37.6,17.8c-3,1.3-4.9,4.3-4.5,7.5
		c19,128.2,72.6,255.5,117.4,313.6C915.4,841.7,917,841.1,917.1,839.8z"/>
	<path class="st0" d="M1062.1,536l-27.9,5.5c-1.4,0.3-2.4,1.5-2.4,3c1.1,41.5-0.9,83.7-6.3,127c-0.1,1.1,1.4,1.5,1.8,0.5
		c17.8-43.3,30.1-88.3,36.8-134C1064.3,536.8,1063.3,535.8,1062.1,536z"/>
	<path class="st0" d="M989.6,302.3c20.7,65,34.2,129.8,39.7,195.9c0.2,2.5,2.5,4.2,4.9,3.7l31.1-6.1c2-0.4,3.6-2.1,3.7-4.2
		c10.3-156.4-43.3-316.2-160.8-437c57.2,60.4,83.1,139.6,77.7,217C985.3,281.9,986.5,292.4,989.6,302.3z"/>
</g>
</svg>
